<svg preserveAspectRatio="none" width="100%" height="100%" overflow="visible" style="display: block;" viewBox="0 0 27.1335 39.1648" fill="none" xmlns="http://www.w3.org/2000/svg">
<path id="Vector" d="M23.6214 32.9647H8.53872C7.5281 32.9647 6.88638 32.8728 6.61075 32.6891C6.33513 32.5067 6.19732 31.8622 6.19732 30.7611V12.6188C6.19732 12.6188 6.19732 12.5867 6.19732 12.5338V9.36558C6.19732 8.08074 6.2892 7.23021 6.47294 6.81677C6.6553 6.40334 7.39029 6.19732 8.67653 6.19732H23.6214C24.7684 6.19732 25.6412 5.8869 26.2384 5.26744C26.8342 4.64799 27.1335 3.92413 27.1335 3.09866C27.1335 2.27319 26.8342 1.54933 26.2384 0.929877C25.6412 0.310423 24.7684 0 23.6214 0H8.67653C6.56342 0 4.87628 0.343832 3.6151 1.03289C2.35114 1.72194 1.43379 2.76736 0.860276 4.16635C0.285367 5.56673 0 7.29981 0 9.36558V30.7611C0 32.7823 0.332695 34.411 0.998086 35.6513C1.66348 36.8916 2.62676 37.7867 3.89073 38.3379C5.1533 38.8892 6.70263 39.1648 8.54011 39.1648H23.6228C24.7698 39.1648 25.6315 38.8544 26.205 38.2349C26.7785 37.6155 27.0653 36.8916 27.0653 36.0647C27.0653 35.2379 26.7785 34.5154 26.205 33.8959C25.6301 33.2765 24.7698 32.9661 23.6228 32.9661L23.6214 32.9647Z" fill="url(#paint0_linear_0_41)"/>
<defs>
<linearGradient id="paint0_linear_0_41" x1="33.9934" y1="-0.594396" x2="3.69027" y2="31.1871" gradientUnits="userSpaceOnUse">
<stop stop-color="#B04322"/>
<stop offset="0.67" stop-color="#EF6322"/>
<stop offset="1" stop-color="#FAA819"/>
</linearGradient>
</defs>
</svg>
