<svg preserveAspectRatio="none" width="100%" height="100%" overflow="visible" style="display: block;" viewBox="0 0 26.3776 39.8524" fill="none" xmlns="http://www.w3.org/2000/svg">
<path id="Vector" d="M25.5173 34.5836C24.9424 33.9642 24.0821 33.6537 22.9351 33.6537H10.056C8.95354 33.6537 8.12807 33.6092 7.57682 33.5159C7.02558 33.424 6.65808 33.1373 6.47433 32.6543C6.29059 32.1726 6.19871 31.4042 6.19871 30.3477V11.9826C6.19871 11.991 6.19871 11.9088 6.19871 11.7084V3.44388C6.19871 2.29685 5.88829 1.43518 5.26884 0.861667C4.64938 0.286758 3.92553 0 3.09866 0C2.27179 0 1.54933 0.286758 0.929876 0.860275C0.310423 1.43518 0 2.29685 0 3.44388V27.3186C0 29.9356 0.0682095 32.071 0.206021 33.7233C0.343832 35.3757 0.687663 36.6396 1.23891 37.511C1.79015 38.3839 2.66156 38.9922 3.85592 39.336C5.04889 39.6798 6.68035 39.8524 8.74613 39.8524H22.9337C24.0807 39.8524 24.9424 39.542 25.5159 38.9226C26.0894 38.3031 26.3776 37.5793 26.3776 36.7524C26.3776 35.9255 26.0908 35.2031 25.5159 34.5836H25.5173Z" fill="var(--fill-0, #D32F27)"/>
</svg>
