<svg preserveAspectRatio="none" width="100%" height="100%" overflow="visible" style="display: block;" viewBox="0 0 31.5657 39.3847" fill="none" xmlns="http://www.w3.org/2000/svg">
<path id="Vector" d="M30.8571 20.6174C30.3685 19.5775 29.6558 18.8383 28.7413 18.4221C27.8726 18.0282 26.862 17.8291 25.7359 17.8291H19.2267C18.1716 17.8291 17.3447 18.1312 16.7726 18.727C16.2032 19.3172 15.9151 20.0188 15.9151 20.8122C15.9151 21.6057 16.2032 22.3073 16.7726 22.8975C17.3461 23.4933 18.1716 23.7968 19.2281 23.7968H25.4463C25.4547 23.8135 25.4686 23.8413 25.4811 23.8859C25.534 24.0668 25.5967 24.4482 25.5967 25.2431V28.6341C25.5967 29.628 25.4588 30.5272 25.1888 31.3068L25.1777 31.3402C25.1039 31.6116 24.8269 31.9165 24.3772 32.2213C23.8692 32.5652 23.0854 32.8519 22.0456 33.0733C20.9765 33.3015 19.5497 33.4171 17.8069 33.4171C15.9234 33.4171 14.2224 33.0663 12.751 32.3731C11.2838 31.6826 10.0393 30.7026 9.05516 29.4582C8.05986 28.2011 7.28867 26.7298 6.76388 25.0844C6.2363 23.4307 5.96763 21.6057 5.96763 19.6638C5.96763 17.7219 6.253 15.9596 6.81538 14.3087C7.37358 12.6661 8.18792 11.2045 9.23612 9.96555C10.276 8.73638 11.5664 7.76196 13.0753 7.06734C14.5885 6.37272 16.3299 6.00104 18.244 5.96624C19.4397 5.96624 20.719 6.10962 22.0456 6.3922C23.375 6.67618 24.7698 7.1258 26.2036 7.73551C27.1724 8.11415 28.0425 8.1392 28.7928 7.80929C29.5347 7.48216 30.0679 6.94762 30.3755 6.22238C30.6831 5.49713 30.6943 4.74126 30.4117 3.97703C30.1221 3.20028 29.4637 2.59335 28.4448 2.16878C27.2253 1.68853 26.0226 1.27928 24.8686 0.949365C23.7035 0.616669 22.5467 0.371672 21.4303 0.222725C20.3153 0.0751696 19.2434 0 18.2384 0C14.5439 0.0375848 11.2949 0.949365 8.57909 2.70889C5.8688 4.46563 3.7376 6.85297 2.24395 9.80268C0.75448 12.7426 0 16.0612 0 19.6652C0 22.4103 0.414826 24.9981 1.23195 27.3562C2.05046 29.7226 3.24343 31.8302 4.77467 33.6231C6.31147 35.423 8.20324 36.8484 10.3957 37.8604C12.5881 38.8725 15.0813 39.3847 17.8069 39.3847C19.6248 39.3847 21.2939 39.2051 22.7694 38.8502C24.2464 38.4952 25.5577 38.0191 26.6643 37.4373C27.7863 36.8484 28.7065 36.1789 29.3983 35.4481C30.0999 34.7075 30.5968 33.9488 30.8766 33.1916L30.885 33.1693C31.1481 32.3397 31.3304 31.5267 31.4251 30.75C31.5184 29.9829 31.5657 29.1143 31.5657 28.1705V24.6974C31.5657 22.9629 31.3346 21.628 30.8599 20.6188L30.8571 20.6174Z" fill="var(--fill-0, #D32F27)"/>
</svg>
