<svg preserveAspectRatio="none" width="100%" height="100%" overflow="visible" style="display: block;" viewBox="0 0 22 22" fill="none" xmlns="http://www.w3.org/2000/svg">
<path id="LinkedIn" d="M20.4286 0C21.2634 0 22 0.736607 22 1.62054V20.4286C22 21.3125 21.2634 22 20.4286 22H1.52232C0.6875 22 0 21.3125 0 20.4286V1.62054C0 0.736607 0.6875 0 1.52232 0H20.4286ZM6.62946 18.8571V8.39732H3.38839V18.8571H6.62946ZM5.00893 6.92411C6.04018 6.92411 6.875 6.08929 6.875 5.05804C6.875 4.02679 6.04018 3.14286 5.00893 3.14286C3.92857 3.14286 3.09375 4.02679 3.09375 5.05804C3.09375 6.08929 3.92857 6.92411 5.00893 6.92411ZM18.8571 18.8571V13.1116C18.8571 10.3125 18.2188 8.10268 14.9286 8.10268C13.3571 8.10268 12.2768 8.98661 11.8348 9.82143H11.7857V8.39732H8.69196V18.8571H11.933V13.7009C11.933 12.3259 12.1786 11 13.8973 11C15.567 11 15.567 12.5714 15.567 13.75V18.8571H18.8571Z" fill="var(--fill-0, white)"/>
</svg>
